<?xml version="1.0" encoding="UTF-8"?>
<svg id="Layer_1" data-name="Layer 1" xmlns="http://www.w3.org/2000/svg" viewBox="0 0 660.917 177.059">
  <defs>
    <style>
      .cls-1 {
        fill: #fff;
        stroke-width: 0px;
      }
    </style>
  </defs>
  <g>
    <g>
      <path class="cls-1" d="M232.825,20.096h-19.639v50.3h-5.434V20.096h-19.639v-4.813h44.711v4.813Z"/>
      <path class="cls-1" d="M241.286,70.396V15.283h23.209c2.38,0,4.58.504,6.598,1.514,2.018,1.009,3.751,2.329,5.201,3.959,1.448,1.63,2.574,3.481,3.377,5.55.802,2.071,1.203,4.166,1.203,6.288,0,2.018-.298,3.947-.893,5.783-.595,1.838-1.436,3.493-2.523,4.968-1.087,1.475-2.381,2.716-3.881,3.726-1.502,1.009-3.183,1.696-5.046,2.057l13.584,21.268h-6.132l-13.041-20.337h-16.301v20.337h-5.356ZM246.642,45.246h18.087c1.603,0,3.066-.349,4.386-1.048,1.32-.699,2.445-1.643,3.377-2.834.931-1.19,1.656-2.535,2.174-4.036.517-1.5.776-3.078.776-4.735s-.298-3.247-.893-4.774c-.596-1.526-1.397-2.859-2.406-3.998-1.009-1.138-2.2-2.043-3.571-2.717-1.372-.672-2.808-1.009-4.308-1.009h-17.621v25.15Z"/>
      <path class="cls-1" d="M292.517,70.396V15.361h5.356v55.035h-5.356Z"/>
      <path class="cls-1" d="M351.045,20.096h-19.639v50.3h-5.434V20.096h-19.639v-4.813h44.711v4.813Z"/>
      <path class="cls-1" d="M379.3,70.784c-3.83,0-7.335-.788-10.518-2.367-3.183-1.578-5.913-3.673-8.189-6.288-2.278-2.612-4.036-5.601-5.278-8.965-1.242-3.363-1.863-6.804-1.863-10.324,0-3.674.66-7.192,1.98-10.557,1.319-3.363,3.144-6.339,5.473-8.927,2.328-2.587,5.071-4.644,8.228-6.171,3.156-1.526,6.571-2.29,10.246-2.29,3.829,0,7.335.815,10.518,2.445,3.183,1.63,5.9,3.765,8.15,6.404,2.251,2.639,3.998,5.628,5.24,8.966,1.242,3.338,1.863,6.741,1.863,10.208,0,3.675-.66,7.194-1.979,10.557-1.32,3.365-3.132,6.326-5.434,8.888-2.303,2.562-5.033,4.607-8.189,6.132-3.157,1.527-6.573,2.29-10.246,2.29ZM358.886,42.839c0,3.001.491,5.887,1.475,8.655.982,2.769,2.379,5.228,4.192,7.374,1.811,2.148,3.959,3.856,6.443,5.124,2.484,1.268,5.252,1.902,8.306,1.902,3.105,0,5.925-.672,8.461-2.019,2.535-1.345,4.683-3.105,6.443-5.278,1.759-2.173,3.117-4.631,4.075-7.375.957-2.742,1.436-5.537,1.436-8.383,0-3.001-.505-5.886-1.514-8.655-1.009-2.768-2.42-5.213-4.231-7.335-1.812-2.121-3.959-3.816-6.443-5.084-2.484-1.267-5.227-1.902-8.228-1.902-3.105,0-5.926.66-8.461,1.979-2.536,1.32-4.684,3.066-6.443,5.239-1.76,2.174-3.118,4.632-4.075,7.375-.958,2.743-1.436,5.538-1.436,8.383Z"/>
      <path class="cls-1" d="M420.984,25.374v45.022h-5.356V15.283h4.192l36.483,45.876V15.361h5.356v55.035h-4.657l-36.018-45.022Z"/>
      <path class="cls-1" d="M475.631,70.396V15.283h5.356v50.3h31.903v4.812h-37.259Z"/>
      <path class="cls-1" d="M515.607,70.396l23.054-55.113h4.425l23.054,55.113h-5.822l-7.141-17.232h-24.762l-7.064,17.232h-5.744ZM540.912,21.648l-11.333,27.246h22.356l-11.023-27.246Z"/>
      <path class="cls-1" d="M574.134,70.396V15.361h5.356v31.981l30.35-32.058h5.977l-22.511,24.219,23.753,30.894h-5.977l-21.114-27.711-10.479,10.79v16.922h-5.356Z"/>
      <path class="cls-1" d="M660.917,65.583v4.812h-37.027V15.283h36.328v4.813h-30.972v19.872h27.013v4.58h-27.013v21.037h31.67Z"/>
    </g>
    <g>
      <path class="cls-1" d="M279.399,161.666v-65.295l-29.776,50.938h-3.403l-29.776-50.938v65.295h-5.423v-75.504h5.423l31.478,54.023,31.477-54.023h5.423v75.504h-5.423Z"/>
      <path class="cls-1" d="M337.249,86.162h4.679l31.903,75.504h-5.743l-10.528-24.884h-36.051l-10.528,24.884h-5.849l32.116-75.504ZM356.072,132.316l-16.483-39.56-16.803,39.56h33.286Z"/>
      <path class="cls-1" d="M439.551,91.054h-27.649v70.612h-5.423v-70.612h-27.65v-4.891h60.722v4.891Z"/>
      <path class="cls-1" d="M460.18,161.666v-75.504h31.371c3.19,0,6.131.675,8.827,2.021,2.692,1.347,5.013,3.137,6.965,5.37,1.95,2.233,3.473,4.75,4.573,7.55,1.098,2.802,1.647,5.62,1.647,8.454,0,2.765-.424,5.442-1.276,8.029-.85,2.589-2.057,4.911-3.615,6.966-1.56,2.057-3.439,3.758-5.636,5.104-2.199,1.347-4.609,2.234-7.231,2.659l18.822,29.351h-6.273l-18.291-28.5h-24.459v28.5h-5.423ZM465.604,128.168h26.479c2.41,0,4.608-.532,6.594-1.595,1.984-1.064,3.686-2.463,5.104-4.201,1.418-1.737,2.499-3.722,3.244-5.956.745-2.233,1.116-4.519,1.116-6.859,0-2.409-.444-4.732-1.329-6.965-.889-2.234-2.092-4.201-3.615-5.902-1.526-1.702-3.297-3.067-5.317-4.095-2.021-1.027-4.201-1.542-6.54-1.542h-25.735v37.114Z"/>
      <path class="cls-1" d="M540.256,161.666v-75.504h5.423v75.504h-5.423Z"/>
      <path class="cls-1" d="M578.99,86.162l26.48,34.349,26.372-34.349h6.169l-29.67,38.283,28.819,37.22h-6.168l-25.522-33.286-25.629,33.286h-6.274l28.818-37.22-29.669-38.283h6.274Z"/>
    </g>
  </g>
  <g>
    <g>
      <g>
        <path class="cls-1" d="M33.522,66.694c-.351,0-.703-.098-1.016-.307L5.352,48.303c-.527-.351-.834-.95-.813-1.585s.369-1.212.92-1.528L76.262,4.777c.757-.426,1.707-.274,2.279.378.575.649.614,1.612.095,2.306l-43.648,58.498c-.357.483-.909.736-1.466.736ZM9.85,46.9l23.244,15.481L70.454,12.307,9.85,46.9Z"/>
        <circle class="cls-1" cx="77.17" cy="6.369" r="6.369"/>
        <circle class="cls-1" cx="33.578" cy="64.865" r="6.369"/>
        <circle class="cls-1" cx="6.369" cy="46.773" r="6.369"/>
      </g>
      <g>
        <path class="cls-1" d="M120.816,66.694c-.557,0-1.108-.253-1.466-.736L75.705,7.461c-.518-.694-.48-1.656.095-2.306.575-.652,1.522-.804,2.279-.378l70.8,40.413c.551.316.9.894.92,1.528s-.286,1.233-.813,1.585l-27.155,18.084c-.313.209-.664.307-1.016.307ZM83.888,12.307l37.357,50.074,23.244-15.481L83.888,12.307Z"/>
        <circle class="cls-1" cx="120.762" cy="64.865" r="6.369"/>
        <circle class="cls-1" cx="147.971" cy="46.773" r="6.369"/>
      </g>
      <rect class="cls-1" x="33.522" y="63.036" width="87.24" height="3.658"/>
      <path class="cls-1" d="M77.68,143.663h-.509c-.658,0-1.266-.354-1.591-.926L31.932,65.768l3.181-1.805,42.311,74.61,42.311-74.61,3.181,1.805-43.645,76.969c-.325.572-.932.926-1.591.926Z"/>
    </g>
    <circle class="cls-1" cx="77.43" cy="141.833" r="6.369"/>
    <g>
      <g>
        <rect class="cls-1" x="72.194" y="148.651" width="81.522" height="3.664" transform="translate(-59.763 75.834) rotate(-29.733)"/>
        <circle class="cls-1" cx="77.554" cy="170.691" r="6.369"/>
        <circle class="cls-1" cx="147.971" cy="130.286" r="6.369"/>
      </g>
      <g>
        <rect class="cls-1" x="40.073" y="109.907" width="3.664" height="81.522" transform="translate(-109.72 112.37) rotate(-60.282)"/>
        <circle class="cls-1" cx="6.505" cy="130.47" r="6.369"/>
      </g>
    </g>
    <rect class="cls-1" x="4.539" y="46.772" width="3.658" height="83.642"/>
    <rect class="cls-1" x="146.142" y="46.772" width="3.658" height="83.642"/>
    <rect class="cls-1" x="75.851" y="141.834" width="3.658" height="29.04"/>
    <rect class="cls-1" x="77.211" y="134.226" width="71.614" height="3.658" transform="translate(-20.457 20.002) rotate(-9.278)"/>
    <rect class="cls-1" x="40.261" y="100.108" width="3.662" height="72.078" transform="translate(-98.991 156.23) rotate(-80.922)"/>
    <rect class="cls-1" x="-15.457" y="95.833" width="70.942" height="3.66" transform="translate(-77.91 78.967) rotate(-67.61)"/>
    <rect class="cls-1" x="132.756" y="62.085" width="3.658" height="70.972" transform="translate(-27.315 59.867) rotate(-22.832)"/>
  </g>
</svg>