<?xml version="1.0" encoding="UTF-8"?>
<svg id="Layer_1" data-name="Layer 1" xmlns="http://www.w3.org/2000/svg" viewBox="0 0 226.772 226.772">
  <defs>
    <style>
      .cls-1 {
        fill: #9bae88;
        stroke-width: 0px;
      }
    </style>
  </defs>
  <g>
    <g>
      <path class="cls-1" d="M73.065,93.214c-.325,0-.649-.091-.938-.283l-25.082-16.706c-.487-.325-.77-.878-.751-1.464s.341-1.12.85-1.412l65.404-37.33c.696-.394,1.574-.253,2.105.349.531.6.567,1.489.088,2.13l-40.321,54.036c-.33.446-.839.68-1.354.68ZM51.199,74.929l21.469,14.301,34.513-46.254-55.982,31.953Z"/>
      <circle class="cls-1" cx="113.386" cy="37.487" r="5.883"/>
      <circle class="cls-1" cx="73.116" cy="91.525" r="5.883"/>
      <circle class="cls-1" cx="47.981" cy="74.812" r="5.883"/>
    </g>
    <g>
      <path class="cls-1" d="M153.707,93.214c-.515,0-1.024-.234-1.354-.68l-40.321-54.036c-.479-.641-.443-1.53.088-2.13.531-.603,1.406-.743,2.105-.349l65.404,37.33c.509.292.831.826.85,1.412s-.264,1.139-.751,1.464l-25.082,16.706c-.289.193-.614.283-.938.283ZM119.591,42.975l34.513,46.254,21.469-14.301-55.982-31.953Z"/>
      <circle class="cls-1" cx="153.655" cy="91.525" r="5.883"/>
      <circle class="cls-1" cx="178.791" cy="74.812" r="5.883"/>
    </g>
    <rect class="cls-1" x="73.065" y="89.835" width="80.591" height="3.379"/>
    <path class="cls-1" d="M113.857,164.316h-.471c-.608,0-1.169-.327-1.469-.856l-40.321-71.103,2.939-1.668,39.086,68.923,39.089-68.923,2.939,1.668-40.321,71.103c-.3.528-.861.856-1.469.856Z"/>
  </g>
  <circle class="cls-1" cx="113.626" cy="162.626" r="5.883"/>
  <g>
    <g>
      <rect class="cls-1" x="108.788" y="168.927" width="75.309" height="3.384" transform="translate(-65.341 95.094) rotate(-29.733)"/>
      <circle class="cls-1" cx="113.741" cy="189.285" r="5.883"/>
      <circle class="cls-1" cx="178.791" cy="151.96" r="5.883"/>
    </g>
    <g>
      <rect class="cls-1" x="79.117" y="133.132" width="3.384" height="75.311" transform="translate(-107.575 156.307) rotate(-60.283)"/>
      <circle class="cls-1" cx="48.107" cy="152.13" r="5.883"/>
    </g>
  </g>
  <rect class="cls-1" x="46.293" y="74.813" width="3.379" height="77.264"/>
  <rect class="cls-1" x="177.1" y="74.813" width="3.379" height="77.264"/>
  <rect class="cls-1" x="112.167" y="162.627" width="3.379" height="26.827"/>
  <rect class="cls-1" x="113.423" y="155.6" width="66.155" height="3.379" transform="translate(-23.443 25.678) rotate(-9.278)"/>
  <rect class="cls-1" x="79.29" y="124.082" width="3.383" height="66.585" transform="translate(-87.199 212.509) rotate(-80.922)"/>
  <rect class="cls-1" x="27.818" y="120.132" width="65.535" height="3.381" transform="translate(-75.131 131.436) rotate(-67.61)"/>
  <rect class="cls-1" x="164.736" y="88.957" width="3.379" height="65.564" transform="translate(-34.195 74.105) rotate(-22.829)"/>
</svg>