<svg id="Layer_1" data-name="Layer 1" xmlns="http://www.w3.org/2000/svg" viewBox="0 0 200 200"><defs><style>.cls-1{fill:#ffe800;}.cls-2{fill:#fdb813;}.cls-3{fill:#f68b39;}.cls-4{fill:#f36f33;}.cls-5{fill:#ee2941;}.cls-6{fill:#c6168d;}.cls-7{fill:#702c91;}.cls-8{fill:#176eaf;}.cls-9{fill:#32a7df;}.cls-10{fill:#51c2ba;}.cls-11{fill:#00a651;}.cls-12{fill:#8cc63f;}</style></defs><path class="cls-1" d="M100,34.06a64.79,64.79,0,0,1,17.15,2.37l7.19-26.92a91.25,91.25,0,0,0-48.2-.1l7,26.94A64.42,64.42,0,0,1,100,34.06Z"/><path class="cls-2" d="M146.55,53.7,166,34.09A92.19,92.19,0,0,0,124.35,9.51l-7.19,26.92A65.33,65.33,0,0,1,146.55,53.7Z"/><path class="cls-3" d="M163.39,83.58,190,76.44a94.3,94.3,0,0,0-24-42.35L146.55,53.7A66.49,66.49,0,0,1,163.39,83.58Z"/><path class="cls-4" d="M190,76.44l-26.58,7.14A65.72,65.72,0,0,1,163.3,118l26.57,7.29A95,95,0,0,0,190,76.44Z"/><path class="cls-5" d="M163.3,118a66.72,66.72,0,0,1-17,29.77l19.37,19.74a93.92,93.92,0,0,0,24.2-42.22Z"/><path class="cls-6" d="M146.3,147.78a65.34,65.34,0,0,1-29.47,17.09l7,26.94a92.6,92.6,0,0,0,41.8-24.29Z"/><path class="cls-7" d="M100,167.16a64.68,64.68,0,0,1-17.15-2.38L75.67,191.7a91.15,91.15,0,0,0,48.2.11l-7-26.94A64.9,64.9,0,0,1,100,167.16Z"/><path class="cls-8" d="M53.46,147.52,34,167.13A92.11,92.11,0,0,0,75.67,191.7l7.19-26.92A65.35,65.35,0,0,1,53.46,147.52Z"/><path class="cls-9" d="M36.61,117.63,10,124.77a94.57,94.57,0,0,0,24,42.36l19.46-19.61A66.69,66.69,0,0,1,36.61,117.63Z"/><path class="cls-10" d="M34.37,100.61A67.66,67.66,0,0,1,36.7,83.24l-26.56-7.3A94.89,94.89,0,0,0,10,124.77l26.6-7.14A67.7,67.7,0,0,1,34.37,100.61Z"/><path class="cls-11" d="M53.72,53.43,34.38,33.7A94,94,0,0,0,10.14,75.94l26.56,7.3A66.65,66.65,0,0,1,53.72,53.43Z"/><path class="cls-12" d="M83.19,36.35l-7-26.94A92.5,92.5,0,0,0,34.38,33.7L53.72,53.43A65.32,65.32,0,0,1,83.19,36.35Z"/></svg>