<svg width="800" height="800" viewBox="0 0 800 800" fill="none" xmlns="http://www.w3.org/2000/svg">
<path d="M400 66.6667C215.905 66.6667 66.6666 215.905 66.6666 400C66.6666 584.093 215.905 733.333 400 733.333C584.093 733.333 733.333 584.093 733.333 400C733.333 215.905 584.093 66.6667 400 66.6667Z" fill="#006938"/>
<path d="M400.003 200C344.777 200 300.004 244.772 300.004 300C300.004 355.23 344.777 400 400.003 400C455.233 400 500.003 355.23 500.003 300C500.003 244.772 455.233 200 400.003 200Z" fill="#FFD98F"/>
<path d="M596.493 551.76C601.187 561.143 601.187 572.19 596.493 581.577C596.777 580.99 596.47 581.623 596.47 581.623L596.443 581.673L596.393 581.773L596.277 582L596.003 582.52C595.8 582.903 595.557 583.347 595.273 583.85C594.7 584.86 593.957 586.107 593.023 587.557C591.16 590.46 588.53 594.18 584.993 598.423C577.9 606.933 567.213 617.483 551.833 627.737C520.767 648.447 472.507 666.667 400.007 666.667C277.169 666.667 225.521 614.347 208.888 590.383C198.825 575.883 199.94 558.943 206.026 546.77C230.573 497.677 280.749 466.667 335.637 466.667H458.81C517.117 466.667 570.417 499.61 596.493 551.76Z" fill="black"/>
</svg>
