<svg width="18" height="18" viewBox="0 0 18 18" fill="none" xmlns="http://www.w3.org/2000/svg">
<path d="M13.4083 9.09501C12.2856 9.09106 11.2116 9.55343 10.4429 10.3719C9.3374 9.48983 7.96388 9.0118 6.54962 9.01713H6.53848C4.83872 9.02073 3.2614 9.68144 2.09237 10.8839C0.904655 12.0976 0.255206 13.7565 0.258804 15.5565C0.2595 15.6551 0.298147 15.7493 0.366504 15.82C0.436254 15.8899 0.531187 15.9287 0.629951 15.9277L10.3724 15.9091C10.3947 15.9351 10.4168 15.9574 10.4392 15.9834C11.7183 17.3371 13.7515 17.6537 15.3817 16.7532C17.0119 15.8526 17.8264 13.9632 17.3616 12.1597C16.8968 10.3562 15.2708 9.09559 13.4083 9.09501ZM1.01224 15.1817C1.09023 13.7231 1.65438 12.3908 2.62298 11.3999C3.65112 10.3421 5.04286 9.75943 6.53848 9.75943H6.54962C7.79792 9.75455 9.01047 10.1761 9.98638 10.9545C9.16413 12.2245 9.10993 13.8447 9.84538 15.1669L1.01224 15.1817ZM13.4083 16.5178C11.5635 16.5178 10.0681 15.0223 10.0681 13.1775C10.0681 11.3329 11.5635 9.8373 13.4083 9.8373C15.2531 9.8373 16.7485 11.3329 16.7485 13.1775C16.7485 15.0223 15.2531 16.5178 13.4083 16.5178Z" fill="black"/>
<path d="M6.54304 8.13381C8.70957 8.13381 10.466 6.37742 10.466 4.21088C10.466 2.04423 8.70957 0.287842 6.54304 0.287842C4.37651 0.287842 2.62012 2.04423 2.62012 4.21088C2.62221 6.37649 4.37732 8.13172 6.54304 8.13381ZM6.54304 1.03014C8.29978 1.03014 9.72367 2.45426 9.72367 4.21088C9.72367 5.96739 8.29978 7.39151 6.54304 7.39151C4.78642 7.39151 3.36241 5.96739 3.36241 4.21088C3.3645 2.45507 4.78723 1.03234 6.54304 1.03014Z" fill="black"/>
<path d="M14.6594 12.0456L12.8667 13.5042L12.2098 12.7359C12.0766 12.58 11.8424 12.5618 11.6866 12.695C11.5307 12.8283 11.5125 13.0626 11.6458 13.2184L12.5365 14.2612C12.6072 14.3434 12.7101 14.3908 12.8186 14.3911C12.9036 14.392 12.9862 14.363 13.0522 14.3095L15.1271 12.6207C15.2838 12.4912 15.3066 12.2593 15.1784 12.1015C15.0499 11.9436 14.8184 11.9187 14.6594 12.0456Z" fill="black"/>
</svg>
