<svg width="28" height="28" viewBox="0 0 28 28" fill="none" xmlns="http://www.w3.org/2000/svg">
<path d="M24.5 2.8H20.3V0.7C20.3 0.514348 20.2262 0.336301 20.095 0.205025C19.9637 0.0737499 19.7857 0 19.6 0C19.4143 0 19.2363 0.0737499 19.105 0.205025C18.9737 0.336301 18.9 0.514348 18.9 0.7V2.8H9.1V0.7C9.1 0.514348 9.02625 0.336301 8.89497 0.205025C8.7637 0.0737499 8.58565 0 8.4 0C8.21435 0 8.0363 0.0737499 7.90503 0.205025C7.77375 0.336301 7.7 0.514348 7.7 0.7V2.8H3.5C2.57208 2.80111 1.68249 3.17022 1.02635 3.82635C0.370217 4.48249 0.0011115 5.37208 0 6.3V24.5C0.0011115 25.4279 0.370217 26.3175 1.02635 26.9736C1.68249 27.6298 2.57208 27.9989 3.5 28H24.5C25.4283 28 26.3185 27.6313 26.9749 26.9749C27.6313 26.3185 28 25.4283 28 24.5V6.3C28 5.37174 27.6313 4.4815 26.9749 3.82513C26.3185 3.16875 25.4283 2.8 24.5 2.8ZM26.6 24.5C26.6 25.057 26.3787 25.5911 25.9849 25.9849C25.5911 26.3787 25.057 26.6 24.5 26.6H3.5C2.94305 26.6 2.4089 26.3787 2.01508 25.9849C1.62125 25.5911 1.4 25.057 1.4 24.5V12.6H26.6V24.5ZM26.6 11.2H1.4V6.3C1.4 5.1408 2.338 4.2 3.5 4.2H7.7V6.3C7.7 6.48565 7.77375 6.6637 7.90503 6.79497C8.0363 6.92625 8.21435 7 8.4 7C8.58565 7 8.7637 6.92625 8.89497 6.79497C9.02625 6.6637 9.1 6.48565 9.1 6.3V4.2H18.9V6.3C18.9 6.48565 18.9737 6.6637 19.105 6.79497C19.2363 6.92625 19.4143 7 19.6 7C19.7857 7 19.9637 6.92625 20.095 6.79497C20.2262 6.6637 20.3 6.48565 20.3 6.3V4.2H24.5C25.057 4.2 25.5911 4.42125 25.9849 4.81508C26.3787 5.2089 26.6 5.74305 26.6 6.3V11.2Z" fill="black"/>
</svg>
