<svg width="16" height="16" viewBox="0 0 16 16" fill="none" xmlns="http://www.w3.org/2000/svg">
<path d="M7.92027 0.113632C3.68935 0.113632 0.258789 3.5442 0.258789 7.77512C0.258789 12.006 3.68935 15.4366 7.92027 15.4366C12.1512 15.4366 15.5818 12.006 15.5818 7.77512C15.5818 3.5442 12.1512 0.113632 7.92027 0.113632ZM7.92027 14.1369C4.40762 14.1369 1.5585 11.2878 1.5585 7.77512C1.5585 6.25308 2.09378 4.85418 2.98648 3.75968L11.9357 12.7089C10.8412 13.6016 9.44231 14.1369 7.92027 14.1369ZM12.8541 11.7906L3.90483 2.84133C4.99933 1.94863 6.39824 1.41335 7.92027 1.41335C11.4329 1.41335 14.282 4.26246 14.282 7.77512C14.282 9.29715 13.7468 10.6961 12.8541 11.7906Z" fill="black"/>
</svg>
