<svg width="14" height="14" viewBox="0 0 14 14" fill="none" xmlns="http://www.w3.org/2000/svg">
<path d="M12.7661 8.97828C12.5797 8.97828 12.4286 9.12937 12.4286 9.31578V12.3124C12.4279 12.8714 11.9751 13.3243 11.4161 13.3249H1.94627C1.38729 13.3243 0.934442 12.8714 0.933782 12.3124V3.51756C0.934442 2.95871 1.38729 2.50573 1.94627 2.50507H4.94287C5.12929 2.50507 5.28037 2.35399 5.28037 2.16757C5.28037 1.98129 5.12929 1.83008 4.94287 1.83008H1.94627C1.01473 1.83113 0.259844 2.58602 0.258789 3.51756V12.3125C0.259844 13.2441 1.01473 13.9989 1.94627 14H11.4161C12.3476 13.9989 13.1025 13.2441 13.1036 12.3125V9.31578C13.1036 9.12937 12.9525 8.97828 12.7661 8.97828Z" fill="black"/>
<path d="M12.9699 0.961689C12.3768 0.368565 11.4152 0.368565 10.822 0.961689L4.80089 6.98284C4.75962 7.0241 4.72983 7.07526 4.71427 7.13142L3.92247 9.98999C3.88991 10.1072 3.923 10.2327 4.00896 10.3188C4.09504 10.4047 4.22055 10.4378 4.33775 10.4054L7.19632 9.61347C7.25248 9.59791 7.30363 9.56812 7.3449 9.52685L13.3659 3.50557C13.9581 2.91205 13.9581 1.95124 13.3659 1.35772L12.9699 0.961689ZM5.53626 7.20221L10.4641 2.27423L12.0534 3.8635L7.12539 8.79148L5.53626 7.20221ZM5.2188 7.83924L6.4885 9.10907L4.7322 9.59567L5.2188 7.83924ZM12.8887 3.02833L12.5307 3.38626L10.9413 1.79686L11.2994 1.43893C11.6289 1.10948 12.1631 1.10948 12.4925 1.43893L12.8887 1.83496C13.2176 2.16481 13.2176 2.69861 12.8887 3.02833Z" fill="black"/>
</svg>
