<svg width="192" height="192" viewBox="0 0 192 192" fill="none" xmlns="http://www.w3.org/2000/svg">
<path d="M176 0H16C11.7565 0 7.68687 1.68571 4.68629 4.68629C1.68571 7.68687 0 11.7565 0 16V176C0 180.243 1.68571 184.313 4.68629 187.314C7.68687 190.314 11.7565 192 16 192H176C180.243 192 184.313 190.314 187.314 187.314C190.314 184.313 192 180.243 192 176V16C192 11.7565 190.314 7.68687 187.314 4.68629C184.313 1.68571 180.243 0 176 0ZM83.7 160.49C74.7856 166.566 63.9244 169.097 53.2425 167.586C42.5605 166.075 32.8269 160.632 25.9469 152.323C19.067 144.013 15.536 133.435 16.0452 122.658C16.5544 111.882 21.0671 101.684 28.7 94.06L54.07 68.69C62.1974 60.5775 73.2116 56.0211 84.695 56.0211C96.1784 56.0211 107.193 60.5775 115.32 68.69C119.711 73.055 123.106 78.3189 125.27 84.12C125.638 85.1049 125.808 86.1526 125.771 87.2033C125.733 88.2539 125.49 89.287 125.053 90.2434C124.617 91.1998 123.996 92.061 123.227 92.7776C122.458 93.4942 121.555 94.0523 120.57 94.42C119.585 94.7877 118.537 94.9578 117.487 94.9206C116.436 94.8834 115.403 94.6396 114.447 94.2032C113.49 93.7668 112.629 93.1462 111.912 92.377C111.196 91.6078 110.638 90.7049 110.27 89.72C108.662 85.4418 106.007 81.6351 102.548 78.6481C99.089 75.6612 94.936 73.5895 90.4692 72.6225C86.0024 71.6555 81.3643 71.8241 76.9795 73.113C72.5947 74.4018 68.6031 76.7697 65.37 80L40 105.37C35.191 110.179 32.3486 116.609 32.0287 123.403C31.7088 130.196 33.9344 136.865 38.2703 142.105C42.6062 147.345 48.7406 150.779 55.474 151.736C62.2075 152.693 69.0558 151.104 74.68 147.28C75.5451 146.633 76.5322 146.168 77.5819 145.913C78.6316 145.658 79.722 145.618 80.7875 145.796C81.853 145.974 82.8715 146.365 83.7815 146.947C84.6915 147.529 85.4742 148.29 86.0824 149.182C86.6906 150.075 87.1117 151.082 87.3204 152.142C87.529 153.202 87.5208 154.293 87.2963 155.349C87.0718 156.406 86.6357 157.406 86.0142 158.29C85.3926 159.173 84.5986 159.922 83.68 160.49H83.7ZM163.31 97.94L137.94 123.31C133.93 127.346 129.158 130.546 123.902 132.724C118.646 134.902 113.01 136.016 107.32 136C98.5068 135.988 89.9064 133.291 82.6652 128.267C75.4241 123.243 69.8863 116.131 66.79 107.88C66.0474 105.891 66.1254 103.688 67.0068 101.757C67.8882 99.825 69.5009 98.3226 71.49 97.58C73.4791 96.8374 75.6818 96.9154 77.6134 97.7968C79.545 98.6782 81.0474 100.291 81.79 102.28C83.7421 107.469 87.225 111.942 91.7772 115.107C96.3295 118.272 101.736 119.978 107.28 120C110.869 120.01 114.425 119.309 117.741 117.935C121.058 116.562 124.069 114.545 126.6 112L152 86.63C156.809 81.8208 159.651 75.3908 159.971 68.5971C160.291 61.8035 158.066 55.1349 153.73 49.8951C149.394 44.6552 143.259 41.2211 136.526 40.264C129.793 39.307 122.944 40.8959 117.32 44.72C116.455 45.3669 115.468 45.8319 114.418 46.087C113.368 46.3421 112.278 46.3819 111.212 46.2042C110.147 46.0264 109.129 45.6347 108.219 45.0527C107.309 44.4706 106.526 43.7103 105.918 42.8176C105.309 41.9249 104.888 40.9182 104.68 39.8584C104.471 38.7985 104.479 37.7073 104.704 36.6507C104.928 35.5941 105.364 34.5938 105.986 33.7103C106.607 32.8268 107.401 32.0783 108.32 31.51C117.236 25.4644 128.085 22.9577 138.75 24.4791C149.414 26.0005 159.129 31.4409 165.999 39.7385C172.869 48.0362 176.401 58.5958 175.906 69.3569C175.41 80.1181 170.923 90.3086 163.32 97.94H163.31Z" fill="#FA8238"/>
</svg>
