<svg width="24" height="28" viewBox="0 0 24 28" fill="none" xmlns="http://www.w3.org/2000/svg">
<path d="M21.2539 24.4073C21.8802 23.5879 22.2674 22.5773 22.2674 21.4692C22.2674 18.787 20.0849 16.6045 17.4018 16.6045C14.7186 16.6045 12.5361 18.787 12.5361 21.4692C12.5361 24.1523 14.7186 26.3348 17.4018 26.3348C18.3664 26.3348 19.2618 26.0442 20.0183 25.5576L22.1811 27.7214C22.3452 27.8864 22.5618 27.9689 22.7774 27.9689C22.993 27.9689 23.2086 27.8864 23.3736 27.7214C23.7036 27.3923 23.7036 26.8579 23.3736 26.5289L21.2539 24.4073ZM14.2236 21.4692C14.2236 19.717 15.6496 18.2911 17.4018 18.2911C19.1539 18.2911 20.5799 19.717 20.5799 21.4692C20.5799 23.2214 19.1539 24.6473 17.4018 24.6473C15.6496 24.6473 14.2236 23.2214 14.2236 21.4692Z" fill="white"/>
<path d="M11.1295 21.4691C11.1295 18.0116 13.9429 15.1981 17.4014 15.1981C19.6851 15.1981 21.6811 16.4291 22.7779 18.2572V3.02187C22.7779 1.84062 21.8123 0.875 20.6311 0.875H2.36855C1.1873 0.875 0.22168 1.84062 0.22168 3.02187V24.9781C0.22168 26.1594 1.1873 27.125 2.36855 27.125H14.7079C12.5957 26.1153 11.1295 23.9628 11.1295 21.4691ZM5.40137 5.16594H17.6001C18.0661 5.16594 18.4439 5.54375 18.4439 6.00969C18.4439 6.47563 18.0661 6.85344 17.6001 6.85344H5.40137C4.93543 6.85344 4.55762 6.47563 4.55762 6.00969C4.55762 5.54375 4.93543 5.16594 5.40137 5.16594ZM5.40137 9.92281H17.6001C18.0661 9.92281 18.4439 10.3006 18.4439 10.7666C18.4439 11.2325 18.0661 11.6103 17.6001 11.6103H5.40137C4.93543 11.6103 4.55762 11.2325 4.55762 10.7666C4.55762 10.3006 4.93543 9.92281 5.40137 9.92281ZM4.55668 15.5244C4.55668 15.0584 4.93449 14.6806 5.40043 14.6806H11.5448C12.0107 14.6806 12.3886 15.0584 12.3886 15.5244C12.3886 15.9903 12.0107 16.3681 11.5448 16.3681H5.40043C4.93449 16.3681 4.55668 15.9903 4.55668 15.5244Z" fill="white"/>
</svg>
