<svg width="25" height="28" viewBox="0 0 25 28" fill="none" xmlns="http://www.w3.org/2000/svg">
<path d="M6.40039 14.6807C5.93445 14.6807 5.55664 15.0585 5.55664 15.5244C5.55664 15.9904 5.93445 16.3682 6.40039 16.3682H12.5448C13.0107 16.3682 13.3885 15.9904 13.3885 15.5244C13.3885 15.0585 13.0107 14.6807 12.5448 14.6807H6.40039Z" fill="#005EFF"/>
<path d="M6.40137 6.85254H18.6001C19.0661 6.85254 19.4439 6.47473 19.4439 6.00879C19.4439 5.54285 19.0661 5.16504 18.6001 5.16504H6.40137C5.93543 5.16504 5.55762 5.54285 5.55762 6.00879C5.55762 6.47473 5.93543 6.85254 6.40137 6.85254Z" fill="#005EFF"/>
<path d="M19.4429 10.7666C19.4429 10.3007 19.0651 9.92285 18.5992 9.92285H6.40137C5.93543 9.92285 5.55762 10.3007 5.55762 10.7666C5.55762 11.2325 5.93543 11.6104 6.40137 11.6104H18.6001C19.0651 11.6104 19.4429 11.2325 19.4429 10.7666Z" fill="#005EFF"/>
<path d="M21.6311 0.03125H3.36856C1.71949 0.03125 0.37793 1.37281 0.37793 3.02188V24.9781C0.37793 26.6272 1.71949 27.9688 3.36762 27.9688H13.0801C13.5461 27.9688 13.9239 27.5909 13.9239 27.125C13.9239 26.6591 13.5461 26.2812 13.0801 26.2812H3.36856C2.65043 26.2812 2.06543 25.6962 2.06543 24.9781V3.02188C2.06543 2.30281 2.65043 1.71875 3.36856 1.71875H21.6311C22.3501 1.71875 22.9342 2.30375 22.9342 3.02188V15.875C22.9342 16.3409 23.312 16.7188 23.7779 16.7188C24.2439 16.7188 24.6217 16.3409 24.6217 15.875V3.02188C24.6217 1.37281 23.2801 0.03125 21.6311 0.03125Z" fill="#005EFF"/>
<path d="M22.2539 24.4073C22.8802 23.5879 23.2674 22.5773 23.2674 21.4692C23.2674 18.787 21.0849 16.6045 18.4018 16.6045C15.7186 16.6045 13.5361 18.787 13.5361 21.4692C13.5361 24.1523 15.7186 26.3348 18.4018 26.3348C19.3664 26.3348 20.2618 26.0442 21.0183 25.5576L23.1811 27.7214C23.3452 27.8864 23.5618 27.9689 23.7774 27.9689C23.993 27.9689 24.2086 27.8864 24.3736 27.7214C24.7036 27.3923 24.7036 26.8579 24.3736 26.5289L22.2539 24.4073ZM15.2236 21.4692C15.2236 19.717 16.6496 18.2911 18.4018 18.2911C20.1539 18.2911 21.5799 19.717 21.5799 21.4692C21.5799 23.2214 20.1539 24.6473 18.4018 24.6473C16.6496 24.6473 15.2236 23.2214 15.2236 21.4692Z" fill="#005EFF"/>
</svg>
