<svg width="23" height="30" viewBox="0 0 23 30" fill="none" xmlns="http://www.w3.org/2000/svg">
<path d="M22.1719 0.770751C21.7159 0.560636 21.1785 0.642399 20.8055 0.978525L18.8373 2.72121C18.7838 2.76886 18.703 2.76858 18.6498 2.72064L15.9718 0.32549C15.4875 -0.108497 14.7543 -0.108497 14.2699 0.32549L11.5944 2.71844C11.5406 2.76652 11.4592 2.76652 11.4054 2.71844L8.72958 0.32549C8.24525 -0.108426 7.51201 -0.108426 7.02767 0.32549L4.34937 2.72064C4.29576 2.76858 4.21478 2.76879 4.16088 2.72114L2.19093 0.978525C1.6683 0.513763 0.867837 0.560636 0.403075 1.08326C0.194662 1.31763 0.0806342 1.62099 0.0830453 1.93457V28.0655C0.078365 28.766 0.642405 29.3376 1.34288 29.3423C1.65667 29.3444 1.96004 29.2301 2.19447 29.0215L4.16266 27.2789C4.2162 27.2312 4.29697 27.2315 4.35022 27.2794L7.02817 29.6746C7.51251 30.1086 8.24574 30.1086 8.73008 29.6746L11.4059 27.2816C11.4597 27.2336 11.5411 27.2336 11.5949 27.2816L14.2707 29.6745C14.7551 30.1083 15.4883 30.1083 15.9726 29.6745L18.6511 27.2794C18.7047 27.2314 18.7857 27.2312 18.8395 27.2789L20.8095 29.0215C21.3323 29.486 22.1327 29.4388 22.5973 28.916C22.8053 28.6818 22.9192 28.3788 22.917 28.0655V1.93457C22.9236 1.43258 22.6306 0.974838 22.1719 0.770751ZM4.77797 10.178H11.8399C12.1532 10.178 12.4072 10.432 12.4072 10.7453C12.4072 11.0586 12.1532 11.3126 11.8399 11.3126H4.77797C4.46467 11.3126 4.21067 11.0586 4.21067 10.7453C4.21067 10.432 4.46467 10.178 4.77797 10.178ZM18.222 19.8221H4.77797C4.46467 19.8221 4.21067 19.5681 4.21067 19.2548C4.21067 18.9415 4.46467 18.6875 4.77797 18.6875H18.222C18.5353 18.6875 18.7893 18.9415 18.7893 19.2548C18.7893 19.5681 18.5353 19.8221 18.222 19.8221ZM18.222 15.5673H4.77797C4.46467 15.5673 4.21067 15.3133 4.21067 15C4.21067 14.6867 4.46467 14.4327 4.77797 14.4327H18.222C18.5353 14.4327 18.7893 14.6867 18.7893 15C18.7893 15.3133 18.5353 15.5673 18.222 15.5673Z" fill="white"/>
</svg>
