<svg width="31" height="30" viewBox="0 0 31 30" fill="none" xmlns="http://www.w3.org/2000/svg">
<path d="M26.1299 0.77589C25.6278 0.544633 25.0362 0.634551 24.6255 1.00448L22.6758 2.73082L20.0233 0.358054C19.4904 -0.119351 18.6836 -0.119351 18.1507 0.358054L15.5003 2.72858L12.8493 0.358054C12.3162 -0.119351 11.5093 -0.119351 10.9763 0.358054L8.32303 2.73082L6.37154 1.00455C5.79571 0.49272 4.91396 0.544633 4.40213 1.12046C4.17298 1.37827 4.04745 1.71188 4.04984 2.05679V27.9432C4.04527 28.7147 4.66704 29.3439 5.43857 29.3484C5.78356 29.3505 6.11717 29.2247 6.37505 28.9955L8.32471 27.2692L10.9773 29.6419C11.5102 30.1194 12.317 30.1194 12.8499 29.6419L15.5003 27.2711L18.1511 29.6417C18.6841 30.119 19.491 30.119 20.024 29.6417L22.6773 27.269L24.6288 28.9952C25.2046 29.5072 26.0863 29.4555 26.5982 28.8798C26.8276 28.6219 26.9531 28.2881 26.9507 27.9429V2.05679C26.9577 1.50415 26.6349 1.00047 26.1299 0.77589ZM23.6052 26.2166C23.0722 25.7445 22.27 25.7466 21.7396 26.2216L19.0871 28.5943L16.4366 26.2238C15.9036 25.7464 15.0968 25.7464 14.5638 26.2238L11.9131 28.5943L9.25943 26.2216C8.73103 25.7467 7.9302 25.7445 7.3992 26.2166L5.4548 27.9424V24.1979L5.44777 2.05714L7.39533 3.78307C7.9283 4.25521 8.73054 4.2531 9.26098 3.77808L11.9135 1.40538L14.5639 3.7759C15.0969 4.25331 15.9038 4.25331 16.4368 3.7759L19.0875 1.40538L21.7411 3.77808C22.2695 4.25303 23.0703 4.25521 23.6014 3.78314L25.5457 2.05679V19.8515L25.5528 27.9426L23.6052 26.2166Z" fill="#005EFF"/>
<path d="M22.1592 14.2974H8.84115C8.45317 14.2974 8.13867 14.6119 8.13867 14.9998C8.13867 15.3878 8.45317 15.7023 8.84115 15.7023H22.1592C22.5472 15.7023 22.8617 15.3878 22.8617 14.9998C22.8617 14.6119 22.5471 14.2974 22.1592 14.2974Z" fill="#005EFF"/>
<path d="M15.8369 10.0825H8.84115C8.45317 10.0825 8.13867 10.397 8.13867 10.785C8.13867 11.173 8.45317 11.4875 8.84115 11.4875H15.8369C16.2249 11.4875 16.5394 11.173 16.5394 10.785C16.5394 10.397 16.2248 10.0825 15.8369 10.0825Z" fill="#005EFF"/>
<path d="M22.1592 18.5122H8.84115C8.45317 18.5122 8.13867 18.8267 8.13867 19.2147C8.13867 19.6027 8.45317 19.9172 8.84115 19.9172H22.1592C22.5472 19.9172 22.8617 19.6027 22.8617 19.2147C22.8617 18.8267 22.5471 18.5122 22.1592 18.5122Z" fill="#005EFF"/>
</svg>
