<svg width="30" height="30" viewBox="0 0 30 30" fill="none" xmlns="http://www.w3.org/2000/svg">
<mask id="mask0_355_351" style="mask-type:alpha" maskUnits="userSpaceOnUse" x="0" y="0" width="30" height="30">
<rect width="30" height="30" fill="#D9D9D9"/>
</mask>
<g mask="url(#mask0_355_351)">
<path d="M15.25 12.7373C17.9246 12.7373 20.0928 10.5575 20.0928 7.86863C20.0928 5.17976 17.9246 3 15.25 3C12.5754 3 10.4072 5.17976 10.4072 7.86863C10.4072 10.5575 12.5754 12.7373 15.25 12.7373Z" fill="white"/>
<path d="M25.0459 12.7373C26.7367 12.7373 28.1074 11.3593 28.1074 9.65941C28.1074 7.95955 26.7367 6.58154 25.0459 6.58154C23.3551 6.58154 21.9844 7.95955 21.9844 9.65941C21.9844 11.3593 23.3551 12.7373 25.0459 12.7373Z" fill="white"/>
<path d="M5.45215 12.7373C7.14298 12.7373 8.51367 11.3593 8.51367 9.65941C8.51367 7.95955 7.14298 6.58154 5.45215 6.58154C3.76132 6.58154 2.39062 7.95955 2.39062 9.65941C2.39062 11.3593 3.76132 12.7373 5.45215 12.7373Z" fill="white"/>
<path d="M8.46956 15.501C7.26443 14.5084 6.17303 14.6398 4.77959 14.6398C2.69553 14.6398 1 16.3343 1 18.4166V24.5281C1 25.4325 1.73421 26.1678 2.63708 26.1678C6.53501 26.1678 6.06543 26.2387 6.06543 25.9988C6.06543 21.6682 5.55521 18.4923 8.46956 15.501Z" fill="white"/>
<path d="M16.5758 14.6622C14.142 14.4581 12.0265 14.6646 10.2017 16.1788C7.14817 18.6377 7.73582 21.9485 7.73582 25.9988C7.73582 27.0704 8.60307 27.9586 9.68518 27.9586C21.4349 27.9586 21.9025 28.3396 22.5992 26.7885C22.8277 26.2639 22.7651 26.4306 22.7651 21.4123C22.7651 17.4264 19.3321 14.6622 16.5758 14.6622Z" fill="white"/>
<path d="M25.7202 14.6399C24.3192 14.6399 23.2338 14.5098 22.0303 15.5011C24.9229 18.4702 24.4344 21.4294 24.4344 25.9989C24.4344 26.2403 24.0446 26.1679 27.8043 26.1679C28.7395 26.1679 29.4998 25.4063 29.4998 24.47V18.4167C29.4998 16.3344 27.8043 14.6399 25.7202 14.6399Z" fill="white"/>
</g>
</svg>
