<svg width="31" height="30" viewBox="0 0 31 30" fill="none" xmlns="http://www.w3.org/2000/svg">
<mask id="mask0_355_650" style="mask-type:alpha" maskUnits="userSpaceOnUse" x="0" y="0" width="31" height="30">
<rect x="0.5" width="30" height="30" fill="#D9D9D9"/>
</mask>
<g mask="url(#mask0_355_650)">
<path d="M15.3493 12.7534C18.0384 12.7534 20.226 10.5657 20.226 7.87668C20.226 5.18767 18.0384 3 15.3493 3C12.6603 3 10.4727 5.18767 10.4727 7.87668C10.4727 10.5657 12.6603 12.7534 15.3493 12.7534ZM15.3493 4.68161C17.1111 4.68161 18.5444 6.11491 18.5444 7.87668C18.5444 9.63845 17.1111 11.0717 15.3493 11.0717C13.5876 11.0717 12.1543 9.63845 12.1543 7.87668C12.1543 6.11491 13.5876 4.68161 15.3493 4.68161Z" fill="#005EFF"/>
<path d="M25.2158 12.7533C26.9157 12.7533 28.2987 11.3703 28.2987 9.67036C28.2987 7.97042 26.9157 6.5874 25.2158 6.5874C23.5158 6.5874 22.1328 7.97042 22.1328 9.67036C22.1328 11.3703 23.5158 12.7533 25.2158 12.7533ZM25.2158 8.26902C25.9885 8.26902 26.6171 8.89766 26.6171 9.67036C26.6171 10.4431 25.9885 11.0717 25.2158 11.0717C24.4431 11.0717 23.8144 10.4431 23.8144 9.67036C23.8144 8.89766 24.4431 8.26902 25.2158 8.26902Z" fill="#005EFF"/>
<path d="M25.8935 14.6592H24.5931C23.0606 14.6592 21.7377 15.5646 21.1349 16.865C19.8938 15.5102 18.1112 14.6592 16.1334 14.6592H14.5663C12.5885 14.6592 10.8058 15.5102 9.56469 16.865C8.96183 15.5646 7.63896 14.6592 6.1065 14.6592H4.80605C2.7074 14.6592 1 16.3563 1 18.4423V24.5639C1 25.4695 1.73957 26.2063 2.64865 26.2063H7.7903C7.87651 27.2096 8.72024 28 9.74563 28H20.954C21.9793 28 22.823 27.2096 22.9093 26.2063H27.9922C28.9337 26.2063 29.6996 25.4434 29.6996 24.5056V18.4423C29.6996 16.3563 27.9922 14.6592 25.8935 14.6592ZM2.68161 18.4423C2.68161 17.2835 3.63464 16.3408 4.80605 16.3408H6.1065C7.27792 16.3408 8.23094 17.2835 8.23094 18.4423V19.018C7.66553 20.4902 7.78251 21.3725 7.78251 24.5247H2.68161V18.4423ZM21.2354 26.0369C21.2354 26.1921 21.1092 26.3184 20.954 26.3184H9.74557C9.59036 26.3184 9.46413 26.1921 9.46413 26.0369V21.4429C9.46413 18.6296 11.7529 16.3408 14.5662 16.3408H16.1333C18.9466 16.3408 21.2354 18.6296 21.2354 21.4429V26.0369ZM28.0179 24.5056C28.0179 24.5346 28.3314 24.5247 22.917 24.5247C22.917 21.3491 23.0331 20.4878 22.4686 19.018V18.4423C22.4686 17.2835 23.4216 16.3408 24.5931 16.3408H25.8935C27.0649 16.3408 28.0179 17.2835 28.0179 18.4423V24.5056Z" fill="#005EFF"/>
<path d="M5.48433 12.7533C7.18427 12.7533 8.56729 11.3703 8.56729 9.67036C8.56729 7.97042 7.18427 6.5874 5.48433 6.5874C3.78438 6.5874 2.40137 7.97042 2.40137 9.67036C2.40137 11.3703 3.78438 12.7533 5.48433 12.7533ZM5.48433 8.26902C6.25703 8.26902 6.88567 8.89766 6.88567 9.67036C6.88567 10.4431 6.25703 11.0717 5.48433 11.0717C4.71163 11.0717 4.08298 10.4431 4.08298 9.67036C4.08298 8.89766 4.71163 8.26902 5.48433 8.26902Z" fill="#005EFF"/>
</g>
</svg>
