<svg width="26" height="26" viewBox="0 0 26 26" fill="none" xmlns="http://www.w3.org/2000/svg">
<path d="M1.13017 13.3143C1.04683 13.2309 1 13.1179 1 13V1.44444C1 1.32657 1.04683 1.21352 1.13017 1.13017C1.21352 1.04683 1.32657 1 1.44444 1H10.1111C10.229 1 10.342 1.04682 10.4254 1.13017C10.5087 1.21352 10.5556 1.32657 10.5556 1.44444V13C10.5556 13.1179 10.5087 13.2309 10.4254 13.3143C10.342 13.3976 10.229 13.4444 10.1111 13.4444H1.44444C1.32657 13.4444 1.21353 13.3976 1.13018 13.3143L0.423068 14.0214L1.13017 13.3143ZM1.13017 24.8698C1.04683 24.7865 1 24.6734 1 24.5556V18.7778C1 18.6599 1.04683 18.5469 1.13017 18.4635C1.21353 18.3802 1.32657 18.3333 1.44444 18.3333H10.1111C10.229 18.3333 10.342 18.3802 10.4254 18.4635C10.5087 18.5469 10.5556 18.6599 10.5556 18.7778V24.5556C10.5556 24.6734 10.5087 24.7865 10.4254 24.8698C10.342 24.9532 10.229 25 10.1111 25H1.44444C1.32657 25 1.21352 24.9532 1.13017 24.8698ZM15.5746 24.8698C15.4913 24.7865 15.4444 24.6734 15.4444 24.5556V13C15.4444 12.8821 15.4913 12.7691 15.5746 12.6857C15.658 12.6024 15.771 12.5556 15.8889 12.5556H24.5556C24.6734 12.5556 24.7865 12.6024 24.8698 12.6857C24.9532 12.7691 25 12.8821 25 13V24.5556C25 24.6734 24.9532 24.7865 24.8698 24.8698C24.7865 24.9532 24.6734 25 24.5556 25H15.8889C15.771 25 15.658 24.9532 15.5746 24.8698ZM15.5746 1.13017C15.658 1.04683 15.771 1 15.8889 1H24.5556C24.6734 1 24.7865 1.04683 24.8698 1.13017C24.9532 1.21352 25 1.32657 25 1.44444V7.22222C25 7.3401 24.9532 7.45314 24.8698 7.53649C24.7865 7.61984 24.6734 7.66667 24.5556 7.66667H15.8889C15.771 7.66667 15.658 7.61984 15.5746 7.53649L14.8983 8.21285L15.5746 7.53649C15.4913 7.45314 15.4444 7.3401 15.4444 7.22222V1.44444C15.4444 1.32657 15.4913 1.21352 15.5746 1.13018L14.8675 0.423068L15.5746 1.13017Z" stroke="#005EFF" stroke-width="2"/>
</svg>
