<svg width="24" height="24" viewBox="0 0 24 24" fill="none" xmlns="http://www.w3.org/2000/svg">
<mask id="mask0_326_781" style="mask-type:alpha" maskUnits="userSpaceOnUse" x="0" y="0" width="24" height="24">
<rect width="24" height="24" fill="#D9D9D9"/>
</mask>
<g mask="url(#mask0_326_781)">
<path d="M20.8809 5.92822L15.959 4.52197L14.5527 -0.399902H4.70898C3.544 -0.399902 2.59961 0.544488 2.59961 1.70947V21.4907C2.59961 22.6557 3.544 23.6001 4.70898 23.6001H18.7715C19.9365 23.6001 20.8809 22.6557 20.8809 21.4907V5.92822Z" fill="white"/>
<path d="M20.8809 5.92822V21.4907C20.8809 22.6557 19.9365 23.6001 18.7715 23.6001H11.7402V-0.399902H14.5527L15.959 4.52197L20.8809 5.92822Z" fill="#E4E4E4"/>
<path d="M20.8809 5.92822H15.959C15.1855 5.92822 14.5527 5.29541 14.5527 4.52197V-0.399902C14.7355 -0.399902 14.9184 -0.32959 15.0449 -0.188918L20.6699 5.43608C20.8105 5.5626 20.8809 5.74541 20.8809 5.92822Z" fill="white"/>
<path d="M15.959 10.897H7.52148C7.13284 10.897 6.81836 10.5825 6.81836 10.1938C6.81836 9.80521 7.13284 9.49072 7.52148 9.49072H15.959C16.3476 9.49072 16.6621 9.80521 16.6621 10.1938C16.6621 10.5825 16.3476 10.897 15.959 10.897Z" fill="#005EFF"/>
<path d="M15.959 13.7095H7.52148C7.13284 13.7095 6.81836 13.395 6.81836 13.0063C6.81836 12.6177 7.13284 12.3032 7.52148 12.3032H15.959C16.3476 12.3032 16.6621 12.6177 16.6621 13.0063C16.6621 13.395 16.3476 13.7095 15.959 13.7095Z" fill="#005EFF"/>
<path d="M15.959 16.522H7.52148C7.13284 16.522 6.81836 16.2075 6.81836 15.8188C6.81836 15.4302 7.13284 15.1157 7.52148 15.1157H15.959C16.3476 15.1157 16.6621 15.4302 16.6621 15.8188C16.6621 16.2075 16.3476 16.522 15.959 16.522Z" fill="#005EFF"/>
<path d="M13.1465 19.3345H7.52148C7.13284 19.3345 6.81836 19.02 6.81836 18.6313C6.81836 18.2427 7.13284 17.9282 7.52148 17.9282H13.1465C13.5351 17.9282 13.8496 18.2427 13.8496 18.6313C13.8496 19.02 13.5351 19.3345 13.1465 19.3345Z" fill="#005EFF"/>
</g>
</svg>
