<svg width="19" height="24" viewBox="0 0 19 24" fill="none" xmlns="http://www.w3.org/2000/svg">
<path d="M18.5752 5.83087L12.9504 0.206016C12.8191 0.0746719 12.6399 0 12.4531 0H2.60938C1.44627 0 0.5 0.946266 0.5 2.10938V21.8906C0.5 23.0537 1.44627 24 2.60938 24H16.6719C17.835 24 18.7812 23.0537 18.7812 21.8906V6.32812C18.7812 6.13641 18.7008 5.95636 18.5752 5.83087ZM13.1562 2.40061L16.3806 5.625H13.8594C13.4717 5.625 13.1562 5.30958 13.1562 4.92188V2.40061ZM16.6719 22.5938H2.60938C2.22167 22.5938 1.90625 22.2783 1.90625 21.8906V2.10938C1.90625 1.72167 2.22167 1.40625 2.60938 1.40625H11.75V4.92188C11.75 6.08498 12.6963 7.03125 13.8594 7.03125H17.375V21.8906C17.375 22.2783 17.0596 22.5938 16.6719 22.5938Z" fill="#005EFF"/>
<path d="M13.8594 9.9375H5.42188C5.03356 9.9375 4.71875 10.2523 4.71875 10.6406C4.71875 11.0289 5.03356 11.3438 5.42188 11.3438H13.8594C14.2477 11.3438 14.5625 11.0289 14.5625 10.6406C14.5625 10.2523 14.2477 9.9375 13.8594 9.9375Z" fill="#005EFF"/>
<path d="M13.8594 12.75H5.42188C5.03356 12.75 4.71875 13.0648 4.71875 13.4531C4.71875 13.8414 5.03356 14.1562 5.42188 14.1562H13.8594C14.2477 14.1562 14.5625 13.8414 14.5625 13.4531C14.5625 13.0648 14.2477 12.75 13.8594 12.75Z" fill="#005EFF"/>
<path d="M13.8594 15.5625H5.42188C5.03356 15.5625 4.71875 15.8773 4.71875 16.2656C4.71875 16.6539 5.03356 16.9688 5.42188 16.9688H13.8594C14.2477 16.9688 14.5625 16.6539 14.5625 16.2656C14.5625 15.8773 14.2477 15.5625 13.8594 15.5625Z" fill="#005EFF"/>
<path d="M11.0469 18.375H5.42188C5.03356 18.375 4.71875 18.6898 4.71875 19.0781C4.71875 19.4664 5.03356 19.7812 5.42188 19.7812H11.0469C11.4352 19.7812 11.75 19.4664 11.75 19.0781C11.75 18.6898 11.4352 18.375 11.0469 18.375Z" fill="#005EFF"/>
</svg>
