<svg width="19" height="24" viewBox="0 0 19 24" fill="none" xmlns="http://www.w3.org/2000/svg">
<path fill-rule="evenodd" clip-rule="evenodd" d="M15.4449 23.9999H3.55515C1.86656 23.9999 0.5 22.6349 0.5 20.9482V4.08882C0.5 2.39941 1.86997 1.03711 3.55515 1.03711H5.39179C5.61966 1.03711 5.80387 1.22179 5.80387 1.44873C5.80387 1.67635 5.61898 1.86035 5.39179 1.86035H3.55515C2.32572 1.86035 1.32485 2.86009 1.32485 4.08814V20.9482C1.32485 22.1762 2.32572 23.1753 3.55515 23.1753H15.4449C16.6743 23.1753 17.6745 22.1755 17.6745 20.9482V4.08814C17.6745 2.86009 16.6736 1.86103 15.4449 1.86103H13.6082C13.3803 1.86103 13.1961 1.67635 13.1961 1.44941C13.1961 1.22179 13.381 1.03779 13.6082 1.03779H15.4449C17.1362 1.03779 18.5 2.40622 18.5 4.0895V20.9495C18.4993 22.6437 17.1259 23.9999 15.4449 23.9999Z" fill="#005EFF"/>
<path fill-rule="evenodd" clip-rule="evenodd" d="M15.4447 22.2975H3.55498C2.78608 22.2975 2.16113 21.6725 2.16113 20.9052V4.13374C2.16113 3.3657 2.78676 2.74146 3.55498 2.74146H5.39162C5.6195 2.74146 5.80371 2.92614 5.80371 3.15307C5.80371 3.38069 5.61881 3.56469 5.39162 3.56469H3.55498C3.24046 3.56469 2.98598 3.82025 2.98598 4.13306V20.9045C2.98598 21.2187 3.24183 21.4729 3.55498 21.4729H15.4447C15.7585 21.4729 16.0137 21.2173 16.0137 20.9045V4.13306C16.0137 3.81889 15.7578 3.56469 15.4447 3.56469H13.608C13.3802 3.56469 13.196 3.38001 13.196 3.15307C13.196 2.92546 13.3809 2.74146 13.608 2.74146H15.4447C16.2136 2.74146 16.8385 3.36638 16.8385 4.13374V20.9052C16.8385 21.6725 16.2136 22.2975 15.4447 22.2975Z" fill="#005EFF"/>
<path fill-rule="evenodd" clip-rule="evenodd" d="M13.2041 4.6021H5.79684C5.34655 4.6021 4.97949 4.23614 4.97949 3.78567V0.816424C4.97949 0.366641 5.34586 0 5.79684 0H13.2034C13.6537 0 14.0208 0.36596 14.0208 0.816424V3.78567C14.0208 4.23614 13.6544 4.6021 13.2041 4.6021ZM5.80502 3.77818H13.1959V0.825283H5.80502V3.77818Z" fill="#005EFF"/>
<path fill-rule="evenodd" clip-rule="evenodd" d="M10.3342 11.4981H8.2915C8.06363 11.4981 7.87942 11.3134 7.87942 11.0865V10.0656H6.8574C6.62952 10.0656 6.44531 9.88095 6.44531 9.65402V7.61364C6.44531 7.38602 6.6302 7.20202 6.8574 7.20202H7.87942V6.18115C7.87942 5.95353 8.06431 5.76953 8.2915 5.76953H10.3342C10.5621 5.76953 10.7463 5.95421 10.7463 6.18115V7.20202H11.7683C11.9962 7.20202 12.1804 7.3867 12.1804 7.61364V9.65402C12.1804 9.88164 11.9955 10.0656 11.7683 10.0656H10.7463V11.0865C10.7469 11.3141 10.5621 11.4981 10.3342 11.4981ZM8.70427 10.6749H9.9221V9.65402C9.9221 9.4264 10.107 9.2424 10.3342 9.2424H11.3562V8.02594H10.3342C10.1063 8.02594 9.9221 7.84126 9.9221 7.61432V6.59345H8.70427V7.61432C8.70427 7.84194 8.51938 8.02594 8.29218 8.02594H7.27016V9.2424H8.29218C8.52006 9.2424 8.70427 9.42708 8.70427 9.65402V10.6749Z" fill="#005EFF"/>
<path fill-rule="evenodd" clip-rule="evenodd" d="M14.3665 13.7014H4.63474C4.40687 13.7014 4.22266 13.5165 4.22266 13.2893C4.22266 13.0614 4.40755 12.8772 4.63474 12.8772H14.3665C14.5943 12.8772 14.7785 13.0621 14.7785 13.2893C14.7792 13.5165 14.5943 13.7014 14.3665 13.7014Z" fill="#005EFF"/>
<path fill-rule="evenodd" clip-rule="evenodd" d="M14.3665 15.9028H4.63474C4.40687 15.9028 4.22266 15.7179 4.22266 15.4907C4.22266 15.2628 4.40755 15.0786 4.63474 15.0786H14.3665C14.5943 15.0786 14.7785 15.2635 14.7785 15.4907C14.7792 15.7179 14.5943 15.9028 14.3665 15.9028Z" fill="#005EFF"/>
<path fill-rule="evenodd" clip-rule="evenodd" d="M14.3665 18.1049H4.63474C4.40687 18.1049 4.22266 17.92 4.22266 17.6928C4.22266 17.465 4.40755 17.2808 4.63474 17.2808H14.3665C14.5943 17.2808 14.7785 17.4657 14.7785 17.6928C14.7792 17.92 14.5943 18.1049 14.3665 18.1049Z" fill="#005EFF"/>
<path fill-rule="evenodd" clip-rule="evenodd" d="M14.3665 20.3059H4.63474C4.40687 20.3059 4.22266 20.121 4.22266 19.8938C4.22266 19.6659 4.40755 19.4817 4.63474 19.4817H14.3665C14.5943 19.4817 14.7785 19.6666 14.7785 19.8938C14.7792 20.121 14.5943 20.3059 14.3665 20.3059Z" fill="#005EFF"/>
<path fill-rule="evenodd" clip-rule="evenodd" d="M11.3565 9.2427V8.02624H10.3345C10.1067 8.02624 9.92244 7.84156 9.92244 7.61462V6.59375H8.70461V7.61462C8.70461 7.84224 8.51972 8.02624 8.29253 8.02624H7.27051V9.2427H8.29253C8.5204 9.2427 8.70461 9.42738 8.70461 9.65432V10.6752H9.92244V9.65432C9.92244 9.4267 10.1073 9.2427 10.3345 9.2427H11.3565Z" fill="#F5F5F5"/>
<path fill-rule="evenodd" clip-rule="evenodd" d="M16.014 20.9055V4.13404C16.014 3.81987 15.7582 3.56567 15.445 3.56567H14.0205V3.78648C14.0205 4.23626 13.6548 4.6029 13.2038 4.6029H5.79655C5.34626 4.6029 4.9792 4.23694 4.9792 3.78648V3.56567H3.55533C3.24081 3.56567 2.98633 3.82123 2.98633 4.13404V20.9055C2.98633 21.2196 3.24217 21.4738 3.55533 21.4738H15.445C15.7582 21.4738 16.014 21.2183 16.014 20.9055ZM12.1811 7.6144V9.65478C12.1811 9.8824 11.9962 10.0664 11.769 10.0664H10.747V11.0873C10.747 11.3149 10.5621 11.4989 10.3349 11.4989H8.29225C8.06437 11.4989 7.88016 11.3142 7.88016 11.0873V10.0664H6.85814C6.63027 10.0664 6.44606 9.88171 6.44606 9.65478V7.6144C6.44606 7.38678 6.63095 7.20278 6.85814 7.20278H7.87948V6.18191C7.87948 5.95429 8.06437 5.77029 8.29156 5.77029H10.3342C10.5621 5.77029 10.7463 5.95497 10.7463 6.18191V7.20278H11.7683C11.9962 7.20278 12.1811 7.38678 12.1811 7.6144ZM4.63398 12.8769H14.3657C14.5936 12.8769 14.7778 13.0615 14.7778 13.2885C14.7778 13.5161 14.5929 13.7001 14.3657 13.7001H4.63398C4.40611 13.7001 4.2219 13.5154 4.2219 13.2885C4.2219 13.0615 4.40679 12.8769 4.63398 12.8769ZM4.63398 15.0787H14.3657C14.5936 15.0787 14.7778 15.2634 14.7778 15.4904C14.7778 15.718 14.5929 15.902 14.3657 15.902H4.63398C4.40611 15.902 4.2219 15.7173 4.2219 15.4904C4.2219 15.2634 4.40679 15.0787 4.63398 15.0787ZM4.63398 17.2806H14.3657C14.5936 17.2806 14.7778 17.4653 14.7778 17.6923C14.7778 17.9199 14.5929 18.1039 14.3657 18.1039H4.63398C4.40611 18.1039 4.2219 17.9192 4.2219 17.6923C4.2219 17.4653 4.40679 17.2806 4.63398 17.2806ZM4.63398 19.4818H14.3657C14.5936 19.4818 14.7778 19.6665 14.7778 19.8935C14.7778 20.1211 14.5929 20.3051 14.3657 20.3051H4.63398C4.40611 20.3051 4.2219 20.1204 4.2219 19.8935C4.2219 19.6665 4.40679 19.4818 4.63398 19.4818Z" fill="white"/>
<path fill-rule="evenodd" clip-rule="evenodd" d="M13.1946 3.77809V3.15316V1.4508V0.825195H5.80371V1.45012V3.15316V3.77809H13.1946Z" fill="white"/>
<path fill-rule="evenodd" clip-rule="evenodd" d="M17.6738 4.0896C17.6738 2.86156 16.673 1.8625 15.4442 1.8625H14.0197V2.74162H15.4442C16.2131 2.74162 16.8381 3.36654 16.8381 4.1339V20.9053C16.8381 21.6727 16.2131 22.2976 15.4442 22.2976H3.55452C2.78561 22.2976 2.16067 21.6727 2.16067 20.9053V4.1339C2.16067 3.36586 2.7863 2.74162 3.55452 2.74162H4.97839V1.86182H3.55452C2.32509 1.86182 1.32422 2.86156 1.32422 4.0896V20.9496C1.32422 22.1777 2.32509 23.1767 3.55452 23.1767H15.4442C16.6736 23.1767 17.6738 22.177 17.6738 20.9496V4.0896Z" fill="#F5F5F5"/>
</svg>
