<svg width="21" height="26" viewBox="0 0 21 26" fill="none" xmlns="http://www.w3.org/2000/svg">
<path d="M13 0.5H3C2.33696 0.5 1.70108 0.763387 1.23224 1.23224C0.763388 1.70108 0.5 2.33696 0.5 3V23C0.5 23.663 0.763388 24.2989 1.23224 24.7678C1.70108 25.2366 2.33696 25.5 3 25.5H18C18.663 25.5 19.2989 25.2366 19.7677 24.7678C20.2366 24.2989 20.5 23.663 20.5 23V8L13 0.5ZM7.3725 18.2375C6.98625 18.6 6.41625 18.7625 5.7525 18.7625C5.6238 18.7639 5.49516 18.7564 5.3675 18.74V20.5225H4.25V15.6025C4.75431 15.5273 5.2639 15.493 5.77375 15.5C6.47 15.5 6.965 15.6325 7.29875 15.8988C7.61625 16.1513 7.83125 16.565 7.83125 17.0525C7.83 17.5425 7.6675 17.9563 7.3725 18.2375ZM12.1313 19.9313C11.6063 20.3675 10.8075 20.575 9.83125 20.575C9.24625 20.575 8.8325 20.5375 8.55125 20.5V15.6038C9.05575 15.5301 9.56512 15.4954 10.075 15.5C11.0212 15.5 11.6363 15.67 12.1163 16.0325C12.635 16.4175 12.96 17.0313 12.96 17.9125C12.96 18.8663 12.6112 19.525 12.1313 19.9313ZM16.75 16.4625H14.835V17.6013H16.625V18.5188H14.835V20.5238H13.7025V15.5375H16.75V16.4625ZM13 9.25H11.75V3L18 9.25H13Z" fill="white"/>
</svg>
