<svg width="23" height="30" viewBox="0 0 23 30" fill="none" xmlns="http://www.w3.org/2000/svg">
<path d="M19.4526 28.6153H3.53195C2.09705 28.6153 0.929688 27.4561 0.929688 26.0312V3.98399C0.929688 2.55091 2.09705 1.38501 3.53195 1.38501H14.8222L22.071 8.58847V26.0312C22.071 27.4561 20.8963 28.6153 19.4526 28.6153ZM3.53195 2.4397C2.67865 2.4397 1.98438 3.13245 1.98438 3.98399V26.0312C1.98438 26.8745 2.67865 27.5606 3.53195 27.5606H19.4525C20.3148 27.5606 21.0163 26.8745 21.0163 26.0312V9.02728L14.3873 2.4397H3.53195Z" fill="#005EFF" stroke="#005EFF" stroke-miterlimit="10"/>
<path d="M22.0554 10.066L15.6694 10.0157C14.3185 10.0157 13.4429 8.97725 13.4429 7.37008L13.3916 1.41602H14.7757V2.4707H14.4554L14.4976 7.36551C14.4976 7.84844 14.6122 8.96102 15.6735 8.96102L21.0007 9.00297V8.68393H22.0554V10.066Z" fill="#005EFF" stroke="#005EFF" stroke-miterlimit="10"/>
<path d="M5.11711 18.9218V18.7504V18.4218V16.7646V16.4443C5.08256 16.4479 5.0573 16.4532 5.03982 16.4583C5.0372 16.4591 5.03482 16.4598 5.03268 16.4605C5.02537 16.4857 5.0166 16.5337 5.0166 16.6129V20.7929C5.0166 20.9019 5.03572 20.9437 5.0408 20.9527C5.04496 20.9536 5.05376 20.9551 5.06873 20.9551C5.07828 20.9551 5.08373 20.9542 5.0859 20.9538C5.08597 20.9538 5.08603 20.9538 5.0861 20.9538L5.11711 18.9218ZM5.11711 18.9218V19.2504V20.7856C5.11711 20.9003 5.09589 20.9415 5.09146 20.9486L5.11711 18.9218ZM7.62036 18.5711C7.70157 18.5317 7.76996 18.4874 7.82715 18.4396L7.62036 18.5711ZM7.62036 18.5711C7.68936 18.5134 7.75255 18.4472 7.80845 18.3718L7.80847 18.3718C7.98045 18.1397 8.04385 17.8643 8.04385 17.5895C8.04385 17.2452 7.939 16.9213 7.6979 16.6634L7.69804 16.6633L7.6885 16.6537C7.65568 16.6204 7.62091 16.5901 7.58464 16.5626C7.68043 16.6028 7.76228 16.6548 7.83329 16.7175L7.62036 18.5711ZM5.09065 20.9498C5.09065 20.9498 5.09081 20.9495 5.09118 20.9491L5.09065 20.9498ZM5.04203 20.9547C5.04202 20.9547 5.04187 20.9545 5.04159 20.954L5.04203 20.9547ZM7.83344 16.7177C7.93514 16.8076 8.01373 16.9179 8.06975 17.056L7.83344 16.7177ZM8.06982 17.0561C8.12606 17.195 8.15912 17.3629 8.15912 17.5674C8.15912 18.0109 8.02736 18.2722 7.82723 18.4395L8.06982 17.0561Z" fill="#005EFF" stroke="#005EFF" stroke-miterlimit="10"/>
<path d="M13.4077 16.8083L13.4077 16.8083L13.4118 16.8118C13.8328 17.1717 14.0851 17.7457 14.0851 18.6364C14.0851 18.9334 14.0591 19.1953 14.0107 19.4245L14.0107 19.4245C13.9628 19.6508 13.8909 19.846 13.7986 20.014L13.7986 20.0141C13.7073 20.1803 13.5902 20.3297 13.4451 20.4634C13.3799 20.5216 13.312 20.5723 13.2412 20.6157C13.2421 20.6149 13.243 20.6142 13.2438 20.6134C13.7733 20.1639 13.9698 19.4496 13.9698 18.629C13.9698 18.0599 13.8867 17.5495 13.6544 17.1671L13.6544 17.167C13.5351 16.9707 13.3897 16.7995 13.2156 16.667C13.2815 16.707 13.3454 16.7539 13.4077 16.8083ZM10.5428 20.4896V20.859C10.5147 20.8566 10.492 20.8534 10.4741 20.8498C10.4696 20.8489 10.4655 20.848 10.4619 20.8471C10.4513 20.7938 10.4424 20.7107 10.4424 20.5896V16.6129C10.4424 16.5318 10.4515 16.4825 10.4592 16.4567C10.4762 16.4516 10.5033 16.4459 10.5428 16.4426V16.8089V16.809V20.4896Z" fill="#005EFF" stroke="#005EFF" stroke-miterlimit="10"/>
<path d="M16.4715 16.4426V16.7868V18.1741V18.499V18.6741V18.999V20.7857C16.4715 20.8967 16.4538 20.9419 16.4485 20.953C16.4479 20.9531 16.447 20.9533 16.4458 20.9536C16.4421 20.9543 16.4348 20.9552 16.4232 20.9552C16.4071 20.9552 16.3985 20.9535 16.3953 20.9526C16.3952 20.9526 16.3952 20.9525 16.3951 20.9525C16.3902 20.9431 16.3711 20.8992 16.3711 20.7857V16.613C16.3711 16.5295 16.3806 16.4809 16.3878 16.4566C16.4046 16.4517 16.4316 16.4459 16.4715 16.4426Z" fill="#005EFF" stroke="#005EFF" stroke-miterlimit="10"/>
</svg>
