<svg width="31" height="30" viewBox="0 0 31 30" fill="none" xmlns="http://www.w3.org/2000/svg">
<path d="M23.6819 4.77275C23.6819 5.90069 24.5994 6.81821 25.7273 6.81821H28.4546C29.5825 6.81821 30.5001 5.90069 30.5001 4.77275V2.04546C30.5001 0.917515 29.5825 0 28.4546 0H25.7273C24.5994 0 23.6819 0.917515 23.6819 2.04546H18.2273C16.7239 2.04546 15.5 3.26857 15.5 4.77275V13.6364H11.4091V12.2727C11.4091 10.7686 10.1853 9.54544 8.68182 9.54544H3.2273C1.72382 9.54544 0.5 10.7686 0.5 12.2727V17.7273C0.5 19.2314 1.72382 20.4546 3.2273 20.4546H8.68182C10.1853 20.4546 11.4091 19.2314 11.4091 17.7273V16.3636H15.5V25.2273C15.5 26.7314 16.7239 27.9546 18.2273 27.9546H23.6819C23.6819 29.0825 24.5994 30.0001 25.7273 30.0001H28.4546C29.5825 30.0001 30.5001 29.0825 30.5001 27.9546V25.2273C30.5001 24.0994 29.5825 23.1819 28.4546 23.1819H25.7273C24.5994 23.1819 23.6819 24.0994 23.6819 25.2273H18.2273V16.3636H23.6819C23.6819 17.4916 24.5994 18.4091 25.7273 18.4091H28.4546C29.5825 18.4091 30.5001 17.4916 30.5001 16.3636V13.6364C30.5001 12.5084 29.5825 11.5909 28.4546 11.5909H25.7273C24.5994 11.5909 23.6819 12.5084 23.6819 13.6364H18.2273V4.77275H23.6819Z" fill="white"/>
</svg>
