<svg width="31" height="30" viewBox="0 0 31 30" fill="none" xmlns="http://www.w3.org/2000/svg">
<g clip-path="url(#clip0_361_2547)">
<path d="M25.7273 6.81821H28.4546C29.5825 6.81821 30.5001 5.90069 30.5001 4.77275V2.04546C30.5001 0.917515 29.5825 0 28.4546 0H25.7273C24.5994 0 23.6819 0.917515 23.6819 2.04546V2.7273H19.5909C18.0875 2.7273 16.8636 3.95041 16.8636 5.45453V14.3182H11.4091V12.2727C11.4091 10.7686 10.1853 9.54544 8.68182 9.54544H3.2273C1.72382 9.54544 0.5 10.7686 0.5 12.2727V17.7273C0.5 19.2314 1.72382 20.4546 3.2273 20.4546H8.68182C10.1853 20.4546 11.4091 19.2314 11.4091 17.7273V15.6818H16.8636V24.5455C16.8636 26.0496 18.0875 27.2728 19.5909 27.2728H23.6819V27.9546C23.6819 29.0825 24.5994 30.0001 25.7273 30.0001H28.4546C29.5825 30.0001 30.5001 29.0825 30.5001 27.9546V25.2273C30.5001 24.0994 29.5825 23.1819 28.4546 23.1819H25.7273C24.5994 23.1819 23.6819 24.0994 23.6819 25.2273V25.9092H19.5909C18.8385 25.9092 18.2273 25.2972 18.2273 24.5455V15.6818H23.6819V16.3636C23.6819 17.4916 24.5994 18.4091 25.7273 18.4091H28.4546C29.5825 18.4091 30.5001 17.4916 30.5001 16.3636V13.6364C30.5001 12.5084 29.5825 11.5909 28.4546 11.5909H25.7273C24.5994 11.5909 23.6819 12.5084 23.6819 13.6364V14.3182H18.2273V5.45453C18.2273 4.70282 18.8386 4.09091 19.5909 4.09091H23.6819V4.77275C23.6819 5.90063 24.5994 6.81821 25.7273 6.81821ZM25.0455 2.04546C25.0455 1.66928 25.3518 1.36362 25.7273 1.36362H28.4546C28.8301 1.36362 29.1364 1.66928 29.1364 2.04546V4.77275C29.1364 5.14892 28.8301 5.45459 28.4545 5.45459H25.7272C25.3517 5.45459 25.0454 5.14899 25.0454 4.77275V2.04546H25.0455ZM10.0454 17.7273C10.0454 18.479 9.43417 19.0909 8.68182 19.0909H3.2273C2.47489 19.0909 1.86368 18.479 1.86368 17.7273V12.2727C1.86368 11.521 2.47495 10.9091 3.2273 10.9091H8.68182C9.43423 10.9091 10.0454 11.521 10.0454 12.2727V17.7273ZM25.0455 25.2273C25.0455 24.8511 25.3518 24.5455 25.7273 24.5455H28.4546C28.8301 24.5455 29.1364 24.8511 29.1364 25.2273V27.9546C29.1364 28.3308 28.8301 28.6364 28.4546 28.6364H25.7273C25.3518 28.6364 25.0455 28.3308 25.0455 27.9546V25.2273ZM25.0455 13.6364C25.0455 13.2602 25.3518 12.9545 25.7273 12.9545H28.4546C28.8301 12.9545 29.1364 13.2601 29.1364 13.6364V16.3636C29.1364 16.7398 28.8301 17.0455 28.4546 17.0455H25.7273C25.3518 17.0455 25.0455 16.7399 25.0455 16.3636V13.6364Z" fill="#005EFF"/>
</g>
<defs>
<clipPath id="clip0_361_2547">
<rect width="30" height="30" fill="white" transform="translate(0.5)"/>
</clipPath>
</defs>
</svg>
