<svg width="30" height="26" viewBox="0 0 30 26" fill="none" xmlns="http://www.w3.org/2000/svg">
<path d="M10.4289 12.2149C11.5592 12.2149 12.6642 11.8797 13.6041 11.2517C14.5439 10.6237 15.2764 9.73105 15.7089 8.68672C16.1415 7.64238 16.2546 6.49323 16.034 5.3846C15.8134 4.27598 15.269 3.25766 14.4696 2.45845C13.6703 1.65923 12.6519 1.11501 11.5432 0.894605C10.4345 0.674203 9.2854 0.787522 8.24114 1.22023C7.19687 1.65294 6.30438 2.3856 5.67653 3.32556C5.04868 4.26552 4.71367 5.37055 4.71387 6.50091C4.71546 8.01605 5.31811 9.46865 6.38957 10.5399C7.46102 11.6112 8.91373 12.2136 10.4289 12.2149Z" fill="white"/>
<path d="M17.905 16.9359C16.4568 15.4505 14.5987 14.4305 12.568 14.0062C10.5374 13.5819 8.42631 13.7726 6.50452 14.5539C4.58273 15.3351 2.93745 16.6715 1.77886 18.3924C0.62026 20.1132 0.000937385 22.1404 0 24.2149C0 24.4801 0.105357 24.7345 0.292893 24.922C0.480429 25.1096 0.734783 25.2149 1 25.2149H19.86C20.1252 25.2149 20.3796 25.1096 20.5671 24.922C20.7546 24.7345 20.86 24.4801 20.86 24.2149C20.8639 23.1546 20.7002 22.1002 20.375 21.0909C19.8908 19.5305 19.0444 18.1068 17.905 16.9359Z" fill="white"/>
<path d="M22.5 12.7148C24.8472 12.7148 26.75 10.8121 26.75 8.46484C26.75 6.11763 24.8472 4.21484 22.5 4.21484C20.1528 4.21484 18.25 6.11763 18.25 8.46484C18.25 10.8121 20.1528 12.7148 22.5 12.7148Z" fill="white"/>
<path d="M22.5003 13.885C21.1599 13.89 19.8454 14.2551 18.6943 14.942C18.9113 15.136 19.1303 15.327 19.3353 15.537C20.697 16.9366 21.7085 18.6382 22.2873 20.503C22.4856 21.117 22.6318 21.7465 22.7243 22.385H29.0003C29.2655 22.385 29.5199 22.2797 29.7074 22.0921C29.895 21.9046 30.0003 21.6502 30.0003 21.385C29.9982 19.3965 29.2074 17.4901 27.8013 16.084C26.3952 14.678 24.4888 13.8871 22.5003 13.885Z" fill="white"/>
</svg>
