<svg width="31" height="25" viewBox="0 0 31 25" fill="none" xmlns="http://www.w3.org/2000/svg">
<path d="M10.9289 11.4298C12.0592 11.4298 13.1642 11.0946 14.1041 10.4665C15.0439 9.83852 15.7764 8.9459 16.2089 7.90156C16.6415 6.85723 16.7546 5.70808 16.534 4.59945C16.3134 3.49082 15.769 2.47251 14.9696 1.67329C14.1703 0.874072 13.1519 0.32985 12.0432 0.109449C10.9345 -0.110953 9.7854 0.00236553 8.74114 0.435074C7.69688 0.867782 6.80438 1.60044 6.17653 2.5404C5.54868 3.48036 5.21367 4.5854 5.21387 5.71576C5.21546 7.23089 5.81811 8.6835 6.88957 9.75477C7.96102 10.826 9.41373 11.4284 10.9289 11.4298ZM10.9289 2.00076C11.6636 2.00076 12.3819 2.21864 12.9928 2.62685C13.6037 3.03506 14.0799 3.61526 14.3611 4.29409C14.6423 4.97292 14.7158 5.71988 14.5725 6.44052C14.4291 7.16116 14.0753 7.82311 13.5558 8.34266C13.0362 8.86221 12.3743 9.21603 11.6536 9.35938C10.933 9.50272 10.186 9.42915 9.5072 9.14797C8.82837 8.86679 8.24817 8.39063 7.83996 7.7797C7.43175 7.16877 7.21387 6.45052 7.21387 5.71576C7.21466 4.73072 7.60632 3.78626 8.30284 3.08973C8.99937 2.39321 9.94383 2.00155 10.9289 2.00076Z" fill="#005EFF"/>
<path d="M23 11.9301C23.8406 11.9301 24.6623 11.6808 25.3612 11.2138C26.0601 10.7468 26.6048 10.083 26.9265 9.30646C27.2482 8.52987 27.3323 7.67534 27.1683 6.85092C27.0043 6.0265 26.5996 5.26922 26.0052 4.67485C25.4108 4.08048 24.6536 3.67571 23.8291 3.51172C23.0047 3.34773 22.1502 3.4319 21.3736 3.75357C20.597 4.07524 19.9332 4.61997 19.4663 5.31888C18.9993 6.01779 18.75 6.83949 18.75 7.68006C18.7513 8.80682 19.1995 9.88706 19.9963 10.6838C20.793 11.4805 21.8732 11.9287 23 11.9301ZM23 5.43006C23.445 5.43006 23.88 5.56202 24.25 5.80925C24.62 6.05648 24.9084 6.40788 25.0787 6.81902C25.249 7.23015 25.2936 7.68255 25.2068 8.11901C25.1199 8.55547 24.9057 8.95638 24.591 9.27105C24.2763 9.58571 23.8754 9.80001 23.439 9.88682C23.0025 9.97364 22.5501 9.92908 22.139 9.75878C21.7278 9.58849 21.3764 9.3001 21.1292 8.93009C20.882 8.56008 20.75 8.12506 20.75 7.68006C20.7505 7.08348 20.9878 6.51149 21.4096 6.08965C21.8314 5.66781 22.4034 5.43059 23 5.43006Z" fill="#005EFF"/>
<path d="M23 13.0998C21.991 13.1028 20.9929 13.3089 20.0652 13.7058C19.1374 14.1026 18.2991 14.6821 17.6 15.4098C16.0762 14.1433 14.2233 13.3369 12.2579 13.0851C10.2926 12.8333 8.29622 13.1463 6.50232 13.9877C4.70843 14.829 3.19125 16.1638 2.12828 17.836C1.06531 19.5081 0.500521 21.4484 0.5 23.4298C0.5 23.695 0.605357 23.9493 0.792893 24.1369C0.98043 24.3244 1.23478 24.4298 1.5 24.4298H20.36C20.6252 24.4298 20.8796 24.3244 21.0671 24.1369C21.2546 23.9493 21.36 23.695 21.36 23.4298C21.3583 22.816 21.3024 22.2036 21.193 21.5998H29.5C29.7652 21.5998 30.0196 21.4944 30.2071 21.3069C30.3946 21.1193 30.5 20.865 30.5 20.5998C30.4979 18.6113 29.707 16.7049 28.301 15.2988C26.8949 13.8927 24.9885 13.1019 23 13.0998ZM2.559 22.4298C2.78407 20.5127 3.66067 18.7311 5.04212 17.383C6.42358 16.0349 8.22609 15.2021 10.1481 15.024C12.0701 14.8458 13.9949 15.3331 15.6006 16.4044C17.2063 17.4756 18.3954 19.0657 18.969 20.9088C19.1288 21.4037 19.2397 21.9131 19.3 22.4298H2.559ZM20.611 19.5998C20.2197 18.6015 19.6763 17.6698 19 16.8378C19.6951 16.0958 20.5824 15.5614 21.5633 15.2939C22.5441 15.0264 23.58 15.0363 24.5555 15.3226C25.531 15.6089 26.4079 16.1603 27.0886 16.9155C27.7693 17.6706 28.2271 18.5999 28.411 19.5998H20.611Z" fill="#005EFF"/>
</svg>
